<svg width="35" height="34" viewBox="0 0 35 34" fill="none" xmlns="http://www.w3.org/2000/svg">
<path d="M17.5 0C7.65625 0 0 7.66373 0 17.5171C0 29.0127 10.3906 33.9394 12.0312 33.9394C13.125 33.9394 13.125 33.392 13.125 32.8446V30.1075C9.29688 31.2023 7.65625 29.0127 7.10938 27.3705C7.10938 27.3705 7.10938 26.8231 6.01562 25.7282C5.46875 25.1808 3.28125 24.086 5.46875 24.086C7.10938 24.086 8.20312 26.2757 8.20312 26.2757C9.84375 28.4653 12.0312 27.9179 13.125 27.3705C13.125 26.2757 14.2188 25.1808 14.2188 25.1808C9.84375 24.6334 6.5625 22.9912 6.5625 16.9697C6.5625 14.7801 7.10938 13.1378 8.20312 12.043C8.20312 12.043 7.10938 9.85337 8.20312 7.11632C8.20312 7.11632 10.9375 7.11632 13.125 9.30596C14.7656 8.21114 20.2344 8.21114 21.875 9.30596C24.0625 7.11632 26.7969 7.11632 26.7969 7.11632C27.8906 10.9482 26.7969 12.043 26.7969 12.043C27.8906 13.1378 28.4375 14.7801 28.4375 16.9697C28.4375 22.9912 24.6094 24.6334 20.7812 25.1808C21.3281 25.7282 21.875 26.8231 21.875 28.4653V32.8446C21.875 33.392 21.875 33.9394 22.9688 33.9394C24.6094 33.9394 35 29.0127 35 17.5171C35 7.66373 27.3438 0 17.5 0Z" fill="white"/>
</svg>
